<?xml version="1.0" encoding="utf-8" standalone="no"?>
<!DOCTYPE svg PUBLIC "-//W3C//DTD SVG 1.1//EN"
  "http://www.w3.org/Graphics/SVG/1.1/DTD/svg11.dtd">
<svg xmlns:xlink="http://www.w3.org/1999/xlink" width="230.158125pt" height="233.53pt" viewBox="0 0 230.158125 233.53" xmlns="http://www.w3.org/2000/svg" version="1.1">
 <metadata>
  <rdf:RDF xmlns:dc="http://purl.org/dc/elements/1.1/" xmlns:cc="http://creativecommons.org/ns#" xmlns:rdf="http://www.w3.org/1999/02/22-rdf-syntax-ns#">
   <cc:Work>
    <dc:type rdf:resource="http://purl.org/dc/dcmitype/StillImage"/>
    <dc:date>2026-06-14T21:18:02.165136</dc:date>
    <dc:format>image/svg+xml</dc:format>
    <dc:creator>
     <cc:Agent>
      <dc:title>Matplotlib v3.9.4, https://matplotlib.org/</dc:title>
     </cc:Agent>
    </dc:creator>
   </cc:Work>
  </rdf:RDF>
 </metadata>
 <defs>
  <style type="text/css">*{stroke-linejoin: round; stroke-linecap: butt}</style>
 </defs>
 <g id="figure_1">
  <g id="patch_1">
   <path d="M 0 233.53 
L 230.158125 233.53 
L 230.158125 0 
L 0 0 
z
" style="fill: #ffffff"/>
  </g>
  <g id="axes_1">
   <g id="patch_2">
    <path d="M 39.794375 197.539375 
L 217.398125 197.539375 
L 217.398125 19.935625 
L 39.794375 19.935625 
z
" style="fill: #ffffff"/>
   </g>
   <g id="matplotlib.axis_1">
    <g id="xtick_1">
     <g id="line2d_1">
      <defs>
       <path id="m84dbd604ac" d="M 0 0 
L 0 3 
" style="stroke: #000000; stroke-width: 0.8"/>
      </defs>
      <g>
       <use xlink:href="#m84dbd604ac" x="39.794375" y="197.539375" style="stroke: #000000; stroke-width: 0.8"/>
      </g>
     </g>
     <g id="text_1">
      <text style="font: 8px 'Arial', 'Helvetica', 'DejaVu Sans', sans-serif; text-anchor: middle" x="39.794375" y="209.765625" transform="rotate(-0 39.794375 209.765625)">0.0</text>
     </g>
    </g>
    <g id="xtick_2">
     <g id="line2d_2">
      <g>
       <use xlink:href="#m84dbd604ac" x="75.315125" y="197.539375" style="stroke: #000000; stroke-width: 0.8"/>
      </g>
     </g>
     <g id="text_2">
      <text style="font: 8px 'Arial', 'Helvetica', 'DejaVu Sans', sans-serif; text-anchor: middle" x="75.315125" y="209.765625" transform="rotate(-0 75.315125 209.765625)">0.2</text>
     </g>
    </g>
    <g id="xtick_3">
     <g id="line2d_3">
      <g>
       <use xlink:href="#m84dbd604ac" x="110.835875" y="197.539375" style="stroke: #000000; stroke-width: 0.8"/>
      </g>
     </g>
     <g id="text_3">
      <text style="font: 8px 'Arial', 'Helvetica', 'DejaVu Sans', sans-serif; text-anchor: middle" x="110.835875" y="209.765625" transform="rotate(-0 110.835875 209.765625)">0.4</text>
     </g>
    </g>
    <g id="xtick_4">
     <g id="line2d_4">
      <g>
       <use xlink:href="#m84dbd604ac" x="146.356625" y="197.539375" style="stroke: #000000; stroke-width: 0.8"/>
      </g>
     </g>
     <g id="text_4">
      <text style="font: 8px 'Arial', 'Helvetica', 'DejaVu Sans', sans-serif; text-anchor: middle" x="146.356625" y="209.765625" transform="rotate(-0 146.356625 209.765625)">0.6</text>
     </g>
    </g>
    <g id="xtick_5">
     <g id="line2d_5">
      <g>
       <use xlink:href="#m84dbd604ac" x="181.877375" y="197.539375" style="stroke: #000000; stroke-width: 0.8"/>
      </g>
     </g>
     <g id="text_5">
      <text style="font: 8px 'Arial', 'Helvetica', 'DejaVu Sans', sans-serif; text-anchor: middle" x="181.877375" y="209.765625" transform="rotate(-0 181.877375 209.765625)">0.8</text>
     </g>
    </g>
    <g id="xtick_6">
     <g id="line2d_6">
      <g>
       <use xlink:href="#m84dbd604ac" x="217.398125" y="197.539375" style="stroke: #000000; stroke-width: 0.8"/>
      </g>
     </g>
     <g id="text_6">
      <text style="font: 8px 'Arial', 'Helvetica', 'DejaVu Sans', sans-serif; text-anchor: middle" x="217.398125" y="209.765625" transform="rotate(-0 217.398125 209.765625)">1.0</text>
     </g>
    </g>
    <g id="text_7">
     <text style="font: 12px 'Arial', 'Helvetica', 'DejaVu Sans', sans-serif; text-anchor: middle" x="128.59625" y="223.945" transform="rotate(-0 128.59625 223.945)">Recall</text>
    </g>
   </g>
   <g id="matplotlib.axis_2">
    <g id="ytick_1">
     <g id="line2d_7">
      <defs>
       <path id="mf72b9b37b0" d="M 0 0 
L -3 0 
" style="stroke: #000000; stroke-width: 0.8"/>
      </defs>
      <g>
       <use xlink:href="#mf72b9b37b0" x="39.794375" y="197.539375" style="stroke: #000000; stroke-width: 0.8"/>
      </g>
     </g>
     <g id="text_8">
      <text style="font: 8px 'Arial', 'Helvetica', 'DejaVu Sans', sans-serif; text-anchor: end" x="33.294375" y="200.4025" transform="rotate(-0 33.294375 200.4025)">0.0</text>
     </g>
    </g>
    <g id="ytick_2">
     <g id="line2d_8">
      <g>
       <use xlink:href="#mf72b9b37b0" x="39.794375" y="162.018625" style="stroke: #000000; stroke-width: 0.8"/>
      </g>
     </g>
     <g id="text_9">
      <text style="font: 8px 'Arial', 'Helvetica', 'DejaVu Sans', sans-serif; text-anchor: end" x="33.294375" y="164.88175" transform="rotate(-0 33.294375 164.88175)">0.2</text>
     </g>
    </g>
    <g id="ytick_3">
     <g id="line2d_9">
      <g>
       <use xlink:href="#mf72b9b37b0" x="39.794375" y="126.497875" style="stroke: #000000; stroke-width: 0.8"/>
      </g>
     </g>
     <g id="text_10">
      <text style="font: 8px 'Arial', 'Helvetica', 'DejaVu Sans', sans-serif; text-anchor: end" x="33.294375" y="129.361" transform="rotate(-0 33.294375 129.361)">0.4</text>
     </g>
    </g>
    <g id="ytick_4">
     <g id="line2d_10">
      <g>
       <use xlink:href="#mf72b9b37b0" x="39.794375" y="90.977125" style="stroke: #000000; stroke-width: 0.8"/>
      </g>
     </g>
     <g id="text_11">
      <text style="font: 8px 'Arial', 'Helvetica', 'DejaVu Sans', sans-serif; text-anchor: end" x="33.294375" y="93.84025" transform="rotate(-0 33.294375 93.84025)">0.6</text>
     </g>
    </g>
    <g id="ytick_5">
     <g id="line2d_11">
      <g>
       <use xlink:href="#mf72b9b37b0" x="39.794375" y="55.456375" style="stroke: #000000; stroke-width: 0.8"/>
      </g>
     </g>
     <g id="text_12">
      <text style="font: 8px 'Arial', 'Helvetica', 'DejaVu Sans', sans-serif; text-anchor: end" x="33.294375" y="58.3195" transform="rotate(-0 33.294375 58.3195)">0.8</text>
     </g>
    </g>
    <g id="ytick_6">
     <g id="line2d_12">
      <g>
       <use xlink:href="#mf72b9b37b0" x="39.794375" y="19.935625" style="stroke: #000000; stroke-width: 0.8"/>
      </g>
     </g>
     <g id="text_13">
      <text style="font: 8px 'Arial', 'Helvetica', 'DejaVu Sans', sans-serif; text-anchor: end" x="33.294375" y="22.79875" transform="rotate(-0 33.294375 22.79875)">1.0</text>
     </g>
    </g>
    <g id="text_14">
     <text style="font: 12px 'Arial', 'Helvetica', 'DejaVu Sans', sans-serif; text-anchor: middle" x="15.789375" y="108.7375" transform="rotate(-90 15.789375 108.7375)">Precision</text>
    </g>
   </g>
   <g id="line2d_13">
    <path d="M 39.794375 19.935625 
L 90.23384 19.935625 
L 90.23384 22.402344 
L 102.310895 21.931173 
L 106.573385 21.805138 
L 106.573385 23.635703 
L 107.2838 23.597558 
L 107.2838 25.372474 
L 110.835875 25.10855 
L 110.835875 26.766538 
L 112.96712 26.575018 
L 112.96712 29.711978 
L 115.80878 29.365913 
L 115.80878 30.841118 
L 116.519195 30.746288 
L 116.519195 32.184159 
L 125.044175 31.035859 
L 134.989985 29.94147 
L 137.12123 29.734453 
L 137.12123 30.883801 
L 142.80455 30.315065 
L 142.80455 32.458966 
L 154.17119 31.294004 
L 154.17119 32.25496 
L 157.723265 31.908912 
L 157.723265 32.834221 
L 159.85451 32.621607 
L 159.85451 35.295949 
L 160.564925 35.213367 
L 160.564925 36.08142 
L 161.985755 35.910565 
L 161.985755 36.761243 
L 163.406585 36.585977 
L 163.406585 37.419932 
L 164.827415 37.240606 
L 164.827415 38.058457 
L 165.53783 37.966463 
L 165.53783 38.772386 
L 166.248245 38.677729 
L 166.248245 39.472037 
L 168.37949 39.183322 
L 168.37949 39.959577 
L 171.22115 39.574501 
L 171.22115 40.330314 
L 172.64198 40.136999 
L 172.64198 41.614956 
L 174.773225 41.313854 
L 174.773225 42.033787 
L 178.3253 41.536081 
L 178.3253 42.235647 
L 179.035715 42.136094 
L 179.035715 42.826775 
L 179.74613 42.725487 
L 179.74613 43.407486 
L 181.16696 43.202492 
L 181.16696 43.873522 
L 182.58779 43.667161 
L 182.58779 44.327556 
L 183.298205 44.223317 
L 183.298205 44.875726 
L 185.42945 44.561355 
L 185.42945 45.20143 
L 187.560695 44.888218 
L 187.560695 45.516412 
L 192.5336 44.80015 
L 192.5336 45.408673 
L 193.244015 45.307589 
L 193.244015 45.909296 
L 193.95443 45.807037 
L 193.95443 46.402066 
L 195.37526 46.196102 
L 195.37526 48.515539 
L 199.63775 47.873294 
L 199.63775 48.431749 
L 201.05858 48.220667 
L 201.05858 48.771658 
L 201.768995 48.665643 
L 201.768995 51.352895 
L 202.47941 51.239883 
L 202.47941 52.284879 
L 203.189825 52.169758 
L 203.189825 53.705352 
L 203.90024 53.586862 
L 203.90024 55.579284 
L 204.610655 55.456375 
L 204.610655 57.389477 
L 205.32107 57.262515 
L 205.32107 58.20714 
L 206.031485 58.078712 
L 206.031485 61.724743 
L 207.452315 61.453385 
L 207.452315 62.331359 
L 208.16273 62.195038 
L 208.16273 63.059858 
L 208.873145 62.92252 
L 208.873145 64.196496 
L 209.58356 64.057311 
L 209.58356 65.715474 
L 210.293975 65.57374 
L 210.293975 73.26853 
L 211.00439 73.113492 
L 211.00439 74.18922 
L 213.135635 73.724189 
L 213.135635 76.151938 
L 213.84605 75.994909 
L 213.84605 82.120492 
L 214.556465 81.955982 
L 214.556465 87.764193 
L 215.26688 87.594196 
L 215.26688 96.460743 
L 215.977295 96.284823 
L 215.977295 103.424567 
L 216.68771 103.246553 
L 216.68771 106.168851 
L 217.398125 105.99105 
L 217.398125 108.7375 
L 217.398125 108.7375 
" clip-path="url(#p360c92de26)" style="fill: none; stroke: #4e79a7; stroke-width: 1.6; stroke-linecap: round"/>
   </g>
   <g id="line2d_14">
    <path d="M 39.794375 19.935625 
L 46.18811 19.935625 
L 46.18811 37.696 
L 47.60894 34.735938 
L 49.02977 32.621607 
L 50.4506 31.035859 
L 51.87143 29.8025 
L 53.29226 28.815812 
L 55.423505 27.657527 
L 57.55475 26.766538 
L 60.39641 25.85575 
L 63.948485 25.010018 
L 68.210975 24.267424 
L 73.18388 23.635703 
L 73.894295 23.560191 
L 73.894295 27.039775 
L 78.8672 26.167336 
L 79.577615 26.059892 
L 79.577615 28.966324 
L 84.55052 28.008523 
L 84.55052 32.994724 
L 85.97135 32.621607 
L 85.97135 34.944393 
L 88.81301 34.143925 
L 88.81301 36.293865 
L 93.785915 34.914255 
L 99.469235 33.597452 
L 105.86297 32.367887 
L 107.2838 32.124118 
L 107.2838 33.730091 
L 110.12546 33.21441 
L 110.12546 34.735938 
L 117.22961 33.481674 
L 120.07127 33.037541 
L 120.07127 34.374954 
L 120.781685 34.258508 
L 120.781685 35.564755 
L 124.33376 34.963635 
L 124.33376 36.204671 
L 125.044175 36.08142 
L 125.044175 38.491241 
L 127.885835 37.953397 
L 127.885835 39.101497 
L 132.85874 38.182586 
L 132.85874 40.336056 
L 137.12123 39.541234 
L 137.12123 40.560577 
L 137.831645 40.428365 
L 137.831645 41.429072 
L 142.094135 40.637903 
L 142.094135 42.539739 
L 144.935795 42.00473 
L 144.935795 42.91964 
L 152.039945 41.64275 
L 152.039945 42.504057 
L 152.75036 42.380055 
L 152.75036 43.22792 
L 154.17119 42.976111 
L 154.17119 44.629195 
L 158.43368 43.861519 
L 158.43368 44.653673 
L 159.85451 44.401448 
L 159.85451 46.71006 
L 162.69617 46.182485 
L 162.69617 46.92443 
L 165.53783 46.405415 
L 165.53783 47.844786 
L 167.669075 47.451699 
L 167.669075 48.153043 
L 168.37949 48.021799 
L 168.37949 48.71401 
L 170.510735 48.319786 
L 170.510735 48.998057 
L 171.22115 48.866553 
L 171.22115 49.53625 
L 172.64198 49.271959 
L 172.64198 50.58406 
L 174.06281 50.315214 
L 174.06281 50.958114 
L 175.48364 50.689521 
L 175.48364 51.322495 
L 177.614885 50.921811 
L 177.614885 51.543072 
L 178.3253 51.409707 
L 178.3253 52.023697 
L 180.456545 51.624261 
L 180.456545 52.227216 
L 181.877375 51.962531 
L 181.877375 52.556722 
L 184.00862 52.162112 
L 184.00862 53.32513 
L 186.139865 52.929207 
L 186.139865 53.498538 
L 187.560695 53.236328 
L 187.560695 54.354956 
L 188.981525 54.090192 
L 188.981525 54.639806 
L 189.69194 54.507347 
L 189.69194 59.765878 
L 191.823185 59.331366 
L 191.823185 59.83212 
L 192.5336 59.688089 
L 192.5336 60.183957 
L 194.664845 59.754259 
L 194.664845 60.242859 
L 195.37526 60.100431 
L 195.37526 60.584371 
L 196.085675 60.441743 
L 196.085675 60.921106 
L 198.927335 60.355789 
L 198.927335 61.295402 
L 201.768995 60.736486 
L 201.768995 62.560525 
L 203.189825 62.278241 
L 203.189825 63.608678 
L 203.90024 63.465956 
L 203.90024 64.76764 
L 205.32107 64.479331 
L 205.32107 65.750605 
L 206.031485 65.605161 
L 206.031485 66.849823 
L 206.7419 66.702757 
L 206.7419 67.517938 
L 207.452315 67.370167 
L 207.452315 68.571729 
L 208.16273 68.422538 
L 208.16273 69.209836 
L 208.873145 69.060066 
L 208.873145 69.836377 
L 209.58356 69.686073 
L 209.58356 71.583006 
L 211.00439 71.278302 
L 211.00439 72.385855 
L 211.714805 72.232939 
L 211.714805 73.319411 
L 212.42522 73.165567 
L 212.42522 74.231629 
L 213.135635 74.076939 
L 213.135635 79.136875 
L 213.84605 78.975564 
L 213.84605 79.297748 
L 214.556465 79.136875 
L 214.556465 82.260952 
L 215.977295 81.933784 
L 215.977295 82.836953 
L 216.68771 82.673573 
L 216.68771 82.971153 
L 217.398125 82.80827 
L 217.398125 108.7375 
L 217.398125 108.7375 
" clip-path="url(#p360c92de26)" style="fill: none; stroke: #f28e2b; stroke-width: 1.6; stroke-linecap: round"/>
   </g>
   <g id="line2d_15">
    <path d="M 39.794375 19.935625 
L 41.215205 19.935625 
L 43.34645 49.53625 
L 44.056865 45.307589 
L 45.477695 39.669375 
L 46.898525 60.921106 
L 47.60894 67.296625 
L 49.740185 59.403125 
L 50.4506 57.325888 
L 50.4506 64.336562 
L 58.97558 56.501103 
L 59.685995 55.456375 
L 62.527655 58.921814 
L 64.6589 65.281263 
L 67.50056 66.849823 
L 68.210975 65.981042 
L 68.210975 68.373011 
L 70.34222 74.362581 
L 71.052635 75.436797 
L 75.315125 72.466312 
L 76.02554 71.736719 
L 80.28803 67.752019 
L 90.944255 72.172022 
L 93.0755 75.33496 
L 93.0755 76.445909 
L 93.785915 75.936807 
L 95.206745 77.077701 
L 96.627575 77.130053 
L 106.573385 79.970695 
L 118.65044 84.240431 
L 120.781685 84.428607 
L 121.4921 84.697213 
L 124.33376 84.518807 
L 126.465005 84.096142 
L 131.43791 83.554879 
L 132.148325 83.239932 
L 132.148325 83.802983 
L 133.569155 83.73503 
L 133.569155 84.28481 
L 138.54206 82.716485 
L 139.96289 82.13786 
L 142.80455 82.572662 
L 144.935795 82.756165 
L 144.935795 84.240431 
L 145.64621 83.964445 
L 145.64621 84.93104 
L 149.9087 85.177819 
L 151.32953 85.104743 
L 152.039945 85.740999 
L 152.75036 85.479866 
L 153.460775 85.662997 
L 154.881605 85.586817 
L 155.59202 85.332355 
L 155.59202 85.765586 
L 156.302435 85.512394 
L 157.01285 85.261142 
L 157.723265 85.011808 
L 162.69617 85.81047 
L 164.117 86.139173 
L 174.06281 88.555256 
L 174.06281 88.907955 
L 174.773225 88.685464 
L 179.74613 90.86883 
L 182.58779 92.852121 
L 184.719035 93.426832 
L 186.139865 93.304696 
L 189.69194 92.862304 
L 189.69194 93.443844 
L 193.95443 93.094893 
L 193.95443 93.377176 
L 193.95443 93.657936 
L 194.664845 93.738792 
L 196.085675 94.172113 
L 197.506505 94.053725 
L 197.506505 94.32463 
L 198.927335 93.937187 
L 200.348165 93.55376 
L 201.05858 93.632026 
L 202.47941 94.050167 
L 203.90024 94.19815 
L 205.32107 94.085191 
L 206.031485 94.158088 
L 207.452315 94.046819 
L 209.58356 93.756255 
L 210.293975 93.576204 
L 210.293975 93.829156 
L 210.293975 94.08088 
L 211.00439 94.151685 
L 211.00439 95.141041 
L 211.00439 95.385428 
L 211.00439 95.628652 
L 211.00439 95.87072 
L 211.00439 96.590074 
L 211.00439 97.299319 
L 211.00439 97.533525 
L 211.00439 97.766639 
L 211.00439 98.459505 
L 211.00439 98.688327 
L 211.714805 98.506869 
L 213.135635 99.050023 
L 213.135635 99.273355 
L 213.84605 99.757535 
L 213.84605 100.195038 
L 213.84605 100.412324 
L 213.84605 100.844 
L 213.84605 101.058402 
L 214.556465 100.878927 
L 214.556465 101.092305 
L 214.556465 101.516249 
L 214.556465 101.726826 
L 214.556465 101.936481 
L 215.26688 101.966115 
L 216.68771 103.246553 
L 216.68771 103.447176 
L 216.68771 103.845871 
L 217.398125 103.668471 
L 217.398125 104.063717 
L 217.398125 106.367019 
L 217.398125 106.553847 
L 217.398125 106.925217 
L 217.398125 107.109767 
L 217.398125 107.293567 
L 217.398125 107.840511 
L 217.398125 108.201473 
L 217.398125 108.55954 
L 217.398125 108.7375 
" clip-path="url(#p360c92de26)" style="fill: none; stroke: #59a14f; stroke-width: 1.6; stroke-linecap: round"/>
   </g>
   <g id="line2d_16">
    <path d="M 39.794375 19.935625 
L 40.50479 19.935625 
L 43.34645 70.679554 
L 44.056865 64.336562 
L 46.18811 64.336562 
L 46.18811 74.582933 
L 57.55475 70.679554 
L 125.75459 85.026005 
L 126.465005 85.27172 
L 127.17542 86.08396 
L 158.43368 83.900194 
L 159.144095 83.656054 
L 164.117 84.106323 
L 164.117 84.518807 
L 164.117 85.738453 
L 164.117 86.139173 
L 174.773225 92.742131 
L 175.48364 92.516724 
L 178.3253 93.537179 
L 179.035715 93.316815 
L 179.035715 93.627927 
L 179.74613 93.408605 
L 180.456545 93.190584 
L 198.21692 100.940262 
L 198.927335 100.743171 
L 199.63775 100.547036 
L 202.47941 103.392943 
L 203.189825 103.200201 
L 215.26688 107.275741 
L 215.26688 108.012587 
L 215.26688 108.194922 
L 215.977295 108.015534 
L 216.68771 108.018456 
L 216.68771 108.199307 
L 216.68771 108.379428 
L 217.398125 108.201473 
L 217.398125 108.7375 
" clip-path="url(#p360c92de26)" style="fill: none; stroke: #e15759; stroke-width: 1.6; stroke-linecap: round"/>
   </g>
   <g id="line2d_17">
    <path d="M 39.794375 197.539375 
L 217.398125 19.935625 
" clip-path="url(#p360c92de26)" style="fill: none; stroke-dasharray: 2.4,1.6; stroke-dashoffset: 0; stroke: #bfbfbf; stroke-width: 0.8"/>
   </g>
   <g id="patch_3">
    <path d="M 39.794375 197.539375 
L 39.794375 19.935625 
" style="fill: none; stroke: #000000; stroke-width: 0.8; stroke-linejoin: miter; stroke-linecap: square"/>
   </g>
   <g id="patch_4">
    <path d="M 39.794375 197.539375 
L 217.398125 197.539375 
" style="fill: none; stroke: #000000; stroke-width: 0.8; stroke-linejoin: miter; stroke-linecap: square"/>
   </g>
   <g id="text_15">
    <text style="font: 12px 'Arial', 'Helvetica', 'DejaVu Sans', sans-serif; text-anchor: middle" x="128.59625" y="15.935625" transform="rotate(-0 128.59625 15.935625)">Benign/Malignant AUPRC</text>
   </g>
   <g id="PathCollection_1">
    <defs>
     <path id="m04a83317ef" d="M 0 -3.872983 
L -3.872983 3.872983 
L 3.872983 3.872983 
z
" style="stroke: #222222; stroke-width: 0.7"/>
    </defs>
    <g clip-path="url(#p360c92de26)">
     <use xlink:href="#m04a83317ef" x="166.95866" y="63.963445" style="fill: #f5b21a; stroke: #222222; stroke-width: 0.7"/>
    </g>
   </g>
   <g id="PathCollection_2">
    <defs>
     <path id="m6875c426ea" d="M -0 3.872983 
L 3.872983 -3.872983 
L -3.872983 -3.872983 
z
" style="stroke: #222222; stroke-width: 0.7"/>
    </defs>
    <g clip-path="url(#p360c92de26)">
     <use xlink:href="#m6875c426ea" x="169.089905" y="49.264685" style="fill: #f5b21a; stroke: #222222; stroke-width: 0.7"/>
    </g>
   </g>
   <g id="legend_1">
    <g id="line2d_18">
     <path d="M 96.570313 122.795781 
L 104.670313 122.795781 
L 112.770313 122.795781 
" style="fill: none; stroke: #4e79a7; stroke-width: 1.6; stroke-linecap: round"/>
    </g>
    <g id="text_16">
     <text style="font: 9px 'Arial', 'Helvetica', 'DejaVu Sans', sans-serif; text-anchor: start" x="119.970313" y="125.945781" transform="rotate(-0 119.970313 125.945781)">ThyroidXAgent (0.926)</text>
    </g>
    <g id="line2d_19">
     <path d="M 96.570313 135.741719 
L 104.670313 135.741719 
L 112.770313 135.741719 
" style="fill: none; stroke: #f28e2b; stroke-width: 1.6; stroke-linecap: round"/>
    </g>
    <g id="text_17">
     <text style="font: 9px 'Arial', 'Helvetica', 'DejaVu Sans', sans-serif; text-anchor: start" x="119.970313" y="138.891719" transform="rotate(-0 119.970313 138.891719)">UltraFedFM (0.880)</text>
    </g>
    <g id="line2d_20">
     <path d="M 96.570313 148.687656 
L 104.670313 148.687656 
L 112.770313 148.687656 
" style="fill: none; stroke: #59a14f; stroke-width: 1.6; stroke-linecap: round"/>
    </g>
    <g id="text_18">
     <text style="font: 9px 'Arial', 'Helvetica', 'DejaVu Sans', sans-serif; text-anchor: start" x="119.970313" y="151.837656" transform="rotate(-0 119.970313 151.837656)">GPT-5.5 (0.660)</text>
    </g>
    <g id="line2d_21">
     <path d="M 96.570313 161.633594 
L 104.670313 161.633594 
L 112.770313 161.633594 
" style="fill: none; stroke: #e15759; stroke-width: 1.6; stroke-linecap: round"/>
    </g>
    <g id="text_19">
     <text style="font: 9px 'Arial', 'Helvetica', 'DejaVu Sans', sans-serif; text-anchor: start" x="119.970313" y="164.783594" transform="rotate(-0 119.970313 164.783594)">Gemini-3.1-Pro (0.619)</text>
    </g>
    <g id="line2d_22">
     <defs>
      <path id="m3917decd1b" d="M 0 -3.75 
L -3.75 3.75 
L 3.75 3.75 
z
" style="stroke: #222222; stroke-width: 0.7; stroke-linejoin: miter"/>
     </defs>
     <g>
      <use xlink:href="#m3917decd1b" x="104.670313" y="174.469844" style="fill: #f5b21a; stroke: #222222; stroke-width: 0.7; stroke-linejoin: miter"/>
     </g>
    </g>
    <g id="text_20">
     <text style="font: 9px 'Arial', 'Helvetica', 'DejaVu Sans', sans-serif; text-anchor: start" x="119.970313" y="177.619844" transform="rotate(-0 119.970313 177.619844)">Clinician 2</text>
    </g>
    <g id="line2d_23">
     <defs>
      <path id="m40f8ba8496" d="M -0 3.75 
L 3.75 -3.75 
L -3.75 -3.75 
z
" style="stroke: #222222; stroke-width: 0.7; stroke-linejoin: miter"/>
     </defs>
     <g>
      <use xlink:href="#m40f8ba8496" x="104.670313" y="187.200625" style="fill: #f5b21a; stroke: #222222; stroke-width: 0.7; stroke-linejoin: miter"/>
     </g>
    </g>
    <g id="text_21">
     <text style="font: 9px 'Arial', 'Helvetica', 'DejaVu Sans', sans-serif; text-anchor: start" x="119.970313" y="190.350625" transform="rotate(-0 119.970313 190.350625)">Clinician 1</text>
    </g>
   </g>
  </g>
 </g>
 <defs>
  <clipPath id="p360c92de26">
   <rect x="39.794375" y="19.935625" width="177.60375" height="177.60375"/>
  </clipPath>
 </defs>
</svg>
